<mxfile host="Electron" modified="2024-02-07T13:09:19.342Z" agent="Mozilla/5.0 (Windows NT 10.0; Win64; x64) AppleWebKit/537.36 (KHTML, like Gecko) draw.io/23.0.2 Chrome/120.0.6099.109 Electron/28.1.0 Safari/537.36" etag="Ji3UVIAx8vfqcQOLcsbF" version="23.0.2" type="device">
  <diagram name="Page-1" id="PPLg_I1r8-qgnKmGnJpS">
    <mxGraphModel dx="712" dy="835" grid="1" gridSize="10" guides="1" tooltips="1" connect="1" arrows="1" fold="1" page="1" pageScale="1" pageWidth="850" pageHeight="1100" math="0" shadow="0">
      <root>
        <mxCell id="0" />
        <mxCell id="1" parent="0" />
        <mxCell id="sMHLNyQN0D_HlpmlSs4N-8" style="edgeStyle=orthogonalEdgeStyle;rounded=0;orthogonalLoop=1;jettySize=auto;html=1;exitX=0.5;exitY=1;exitDx=0;exitDy=0;entryX=0.5;entryY=0;entryDx=0;entryDy=0;" parent="1" source="sMHLNyQN0D_HlpmlSs4N-2" target="sMHLNyQN0D_HlpmlSs4N-4" edge="1">
          <mxGeometry relative="1" as="geometry" />
        </mxCell>
        <mxCell id="sMHLNyQN0D_HlpmlSs4N-2" value="Начало" style="rounded=1;whiteSpace=wrap;html=1;" parent="1" vertex="1">
          <mxGeometry x="340" y="20" width="120" height="30" as="geometry" />
        </mxCell>
        <mxCell id="sMHLNyQN0D_HlpmlSs4N-3" value="Конец" style="rounded=1;whiteSpace=wrap;html=1;" parent="1" vertex="1">
          <mxGeometry x="330" y="680" width="120" height="30" as="geometry" />
        </mxCell>
        <mxCell id="sMHLNyQN0D_HlpmlSs4N-9" style="edgeStyle=orthogonalEdgeStyle;rounded=0;orthogonalLoop=1;jettySize=auto;html=1;exitX=0.5;exitY=1;exitDx=0;exitDy=0;entryX=0.5;entryY=0;entryDx=0;entryDy=0;" parent="1" source="sMHLNyQN0D_HlpmlSs4N-4" target="sMHLNyQN0D_HlpmlSs4N-5" edge="1">
          <mxGeometry relative="1" as="geometry" />
        </mxCell>
        <mxCell id="sMHLNyQN0D_HlpmlSs4N-4" value="Массив строк" style="shape=parallelogram;perimeter=parallelogramPerimeter;whiteSpace=wrap;html=1;fixedSize=1;" parent="1" vertex="1">
          <mxGeometry x="320" y="80" width="160" height="60" as="geometry" />
        </mxCell>
        <mxCell id="sMHLNyQN0D_HlpmlSs4N-10" style="edgeStyle=orthogonalEdgeStyle;rounded=0;orthogonalLoop=1;jettySize=auto;html=1;exitX=0.5;exitY=1;exitDx=0;exitDy=0;entryX=0.5;entryY=0;entryDx=0;entryDy=0;" parent="1" source="sMHLNyQN0D_HlpmlSs4N-5" target="sMHLNyQN0D_HlpmlSs4N-6" edge="1">
          <mxGeometry relative="1" as="geometry" />
        </mxCell>
        <mxCell id="VX_0VVApAwYvyAsF2JCo-8" style="edgeStyle=orthogonalEdgeStyle;rounded=0;orthogonalLoop=1;jettySize=auto;html=1;exitX=1;exitY=0.5;exitDx=0;exitDy=0;entryX=0;entryY=0.5;entryDx=0;entryDy=0;" edge="1" parent="1" source="sMHLNyQN0D_HlpmlSs4N-5" target="VX_0VVApAwYvyAsF2JCo-7">
          <mxGeometry relative="1" as="geometry" />
        </mxCell>
        <mxCell id="sMHLNyQN0D_HlpmlSs4N-5" value="Счетчик = 0, длинна массива, шаг: 1" style="shape=hexagon;perimeter=hexagonPerimeter2;whiteSpace=wrap;html=1;fixedSize=1;" parent="1" vertex="1">
          <mxGeometry x="330" y="180" width="140" height="93.33" as="geometry" />
        </mxCell>
        <mxCell id="sMHLNyQN0D_HlpmlSs4N-11" style="edgeStyle=orthogonalEdgeStyle;rounded=0;orthogonalLoop=1;jettySize=auto;html=1;exitX=0.5;exitY=1;exitDx=0;exitDy=0;" parent="1" source="sMHLNyQN0D_HlpmlSs4N-6" edge="1">
          <mxGeometry relative="1" as="geometry">
            <mxPoint x="400" y="400" as="targetPoint" />
          </mxGeometry>
        </mxCell>
        <mxCell id="sMHLNyQN0D_HlpmlSs4N-16" style="edgeStyle=orthogonalEdgeStyle;rounded=0;orthogonalLoop=1;jettySize=auto;html=1;exitX=0;exitY=0.5;exitDx=0;exitDy=0;" parent="1" source="sMHLNyQN0D_HlpmlSs4N-6" edge="1">
          <mxGeometry relative="1" as="geometry">
            <mxPoint x="280" y="340" as="targetPoint" />
          </mxGeometry>
        </mxCell>
        <mxCell id="sMHLNyQN0D_HlpmlSs4N-6" value="Длинна строки &amp;lt;=" style="rhombus;whiteSpace=wrap;html=1;" parent="1" vertex="1">
          <mxGeometry x="330" y="300" width="140" height="80" as="geometry" />
        </mxCell>
        <mxCell id="sMHLNyQN0D_HlpmlSs4N-13" style="edgeStyle=orthogonalEdgeStyle;rounded=0;orthogonalLoop=1;jettySize=auto;html=1;exitX=0;exitY=0.5;exitDx=0;exitDy=0;" parent="1" source="sMHLNyQN0D_HlpmlSs4N-12" edge="1">
          <mxGeometry relative="1" as="geometry">
            <mxPoint x="400" y="160" as="targetPoint" />
            <Array as="points">
              <mxPoint x="280" y="420" />
              <mxPoint x="280" y="160" />
            </Array>
          </mxGeometry>
        </mxCell>
        <mxCell id="sMHLNyQN0D_HlpmlSs4N-12" value="Инкрементировать счетчик малых строк" style="rounded=0;whiteSpace=wrap;html=1;" parent="1" vertex="1">
          <mxGeometry x="340" y="400" width="120" height="40" as="geometry" />
        </mxCell>
        <mxCell id="sMHLNyQN0D_HlpmlSs4N-14" value="да" style="text;html=1;align=center;verticalAlign=middle;resizable=0;points=[];autosize=1;strokeColor=none;fillColor=none;" parent="1" vertex="1">
          <mxGeometry x="396" y="371" width="40" height="30" as="geometry" />
        </mxCell>
        <mxCell id="sMHLNyQN0D_HlpmlSs4N-17" value="нет" style="text;html=1;strokeColor=none;fillColor=none;align=center;verticalAlign=middle;whiteSpace=wrap;rounded=0;" parent="1" vertex="1">
          <mxGeometry x="287" y="315" width="60" height="30" as="geometry" />
        </mxCell>
        <mxCell id="sMHLNyQN0D_HlpmlSs4N-21" style="edgeStyle=orthogonalEdgeStyle;rounded=0;orthogonalLoop=1;jettySize=auto;html=1;exitX=0.5;exitY=1;exitDx=0;exitDy=0;entryX=0.5;entryY=0;entryDx=0;entryDy=0;" parent="1" source="sMHLNyQN0D_HlpmlSs4N-19" target="sMHLNyQN0D_HlpmlSs4N-3" edge="1">
          <mxGeometry relative="1" as="geometry" />
        </mxCell>
        <mxCell id="sMHLNyQN0D_HlpmlSs4N-19" value="Массив малых строк" style="shape=parallelogram;perimeter=parallelogramPerimeter;whiteSpace=wrap;html=1;fixedSize=1;" parent="1" vertex="1">
          <mxGeometry x="310" y="590" width="160" height="60" as="geometry" />
        </mxCell>
        <mxCell id="VX_0VVApAwYvyAsF2JCo-10" style="edgeStyle=orthogonalEdgeStyle;rounded=0;orthogonalLoop=1;jettySize=auto;html=1;exitX=0.5;exitY=1;exitDx=0;exitDy=0;entryX=0.5;entryY=0;entryDx=0;entryDy=0;" edge="1" parent="1" source="VX_0VVApAwYvyAsF2JCo-1" target="VX_0VVApAwYvyAsF2JCo-3">
          <mxGeometry relative="1" as="geometry" />
        </mxCell>
        <mxCell id="VX_0VVApAwYvyAsF2JCo-18" style="edgeStyle=orthogonalEdgeStyle;rounded=0;orthogonalLoop=1;jettySize=auto;html=1;exitX=1;exitY=0.5;exitDx=0;exitDy=0;entryX=1;entryY=0.5;entryDx=0;entryDy=0;" edge="1" parent="1" source="VX_0VVApAwYvyAsF2JCo-1" target="sMHLNyQN0D_HlpmlSs4N-19">
          <mxGeometry relative="1" as="geometry">
            <mxPoint x="780" y="330" as="targetPoint" />
            <Array as="points">
              <mxPoint x="720" y="330" />
              <mxPoint x="720" y="620" />
            </Array>
          </mxGeometry>
        </mxCell>
        <mxCell id="VX_0VVApAwYvyAsF2JCo-1" value="Счетчик = 0, длинна массива строк, шаг: 1" style="shape=hexagon;perimeter=hexagonPerimeter2;whiteSpace=wrap;html=1;fixedSize=1;" vertex="1" parent="1">
          <mxGeometry x="560" y="283.33000000000004" width="140" height="93.33" as="geometry" />
        </mxCell>
        <mxCell id="VX_0VVApAwYvyAsF2JCo-11" style="edgeStyle=orthogonalEdgeStyle;rounded=0;orthogonalLoop=1;jettySize=auto;html=1;exitX=0.5;exitY=1;exitDx=0;exitDy=0;entryX=0.5;entryY=0;entryDx=0;entryDy=0;" edge="1" parent="1" source="VX_0VVApAwYvyAsF2JCo-3" target="VX_0VVApAwYvyAsF2JCo-4">
          <mxGeometry relative="1" as="geometry" />
        </mxCell>
        <mxCell id="VX_0VVApAwYvyAsF2JCo-17" style="edgeStyle=orthogonalEdgeStyle;rounded=0;orthogonalLoop=1;jettySize=auto;html=1;exitX=0;exitY=0.5;exitDx=0;exitDy=0;" edge="1" parent="1" source="VX_0VVApAwYvyAsF2JCo-3">
          <mxGeometry relative="1" as="geometry">
            <mxPoint x="520" y="440" as="targetPoint" />
          </mxGeometry>
        </mxCell>
        <mxCell id="VX_0VVApAwYvyAsF2JCo-3" value="Длинна строки &amp;lt;=" style="rhombus;whiteSpace=wrap;html=1;" vertex="1" parent="1">
          <mxGeometry x="560" y="400" width="140" height="80" as="geometry" />
        </mxCell>
        <mxCell id="VX_0VVApAwYvyAsF2JCo-12" style="edgeStyle=orthogonalEdgeStyle;rounded=0;orthogonalLoop=1;jettySize=auto;html=1;exitX=0;exitY=0.5;exitDx=0;exitDy=0;" edge="1" parent="1" source="VX_0VVApAwYvyAsF2JCo-4">
          <mxGeometry relative="1" as="geometry">
            <mxPoint x="630" y="270" as="targetPoint" />
            <Array as="points">
              <mxPoint x="520" y="530" />
              <mxPoint x="520" y="270" />
            </Array>
          </mxGeometry>
        </mxCell>
        <mxCell id="VX_0VVApAwYvyAsF2JCo-4" value="Добавить строку в массив малых строк" style="rounded=0;whiteSpace=wrap;html=1;" vertex="1" parent="1">
          <mxGeometry x="570" y="510" width="120" height="40" as="geometry" />
        </mxCell>
        <mxCell id="VX_0VVApAwYvyAsF2JCo-9" style="edgeStyle=orthogonalEdgeStyle;rounded=0;orthogonalLoop=1;jettySize=auto;html=1;exitX=0.5;exitY=1;exitDx=0;exitDy=0;entryX=0.5;entryY=0;entryDx=0;entryDy=0;" edge="1" parent="1" source="VX_0VVApAwYvyAsF2JCo-7" target="VX_0VVApAwYvyAsF2JCo-1">
          <mxGeometry relative="1" as="geometry" />
        </mxCell>
        <mxCell id="VX_0VVApAwYvyAsF2JCo-7" value="Создать массив малых строк расчетной длинны" style="rounded=0;whiteSpace=wrap;html=1;" vertex="1" parent="1">
          <mxGeometry x="570" y="196.66" width="120" height="60" as="geometry" />
        </mxCell>
        <mxCell id="VX_0VVApAwYvyAsF2JCo-13" value="да" style="text;html=1;align=center;verticalAlign=middle;resizable=0;points=[];autosize=1;strokeColor=none;fillColor=none;" vertex="1" parent="1">
          <mxGeometry x="624" y="474" width="40" height="30" as="geometry" />
        </mxCell>
        <mxCell id="VX_0VVApAwYvyAsF2JCo-14" value="нет" style="text;html=1;strokeColor=none;fillColor=none;align=center;verticalAlign=middle;whiteSpace=wrap;rounded=0;" vertex="1" parent="1">
          <mxGeometry x="517" y="414" width="60" height="30" as="geometry" />
        </mxCell>
      </root>
    </mxGraphModel>
  </diagram>
</mxfile>
